<?xml version="1.0" encoding="utf-8"?>
<!-- Generator: Adobe Illustrator 16.0.0, SVG Export Plug-In . SVG Version: 6.00 Build 0)  -->
<!DOCTYPE svg PUBLIC "-//W3C//DTD SVG 1.1//EN" "http://www.w3.org/Graphics/SVG/1.1/DTD/svg11.dtd">
<svg version="1.1" id="Layer_1" xmlns="http://www.w3.org/2000/svg" xmlns:xlink="http://www.w3.org/1999/xlink" x="0px" y="0px"
	 width="726px" height="685.141px" viewBox="147.445 -89.86 726 685.141" enable-background="new 147.445 -89.86 726 685.141"
	 xml:space="preserve">
<g>
	<title>Adobe Animate CC (2020) logo</title>
	<g id="vlpa">
		<path fill="#00005B" d="M295.229-72.172h430.402c65.238,0,117.999,52.762,117.999,117.997v413.768
			c0,65.238-52.761,118-117.999,118H295.229c-65.234,0-117.997-52.762-117.997-118V45.825
			C177.234-19.41,229.995-72.172,295.229-72.172z"/>
		<g id="vlpb">
			<path fill="#9999FF" d="M447.534,317.685H344.611l-21.052,65.238c-0.519,2.6-2.859,4.158-5.197,3.898h-53.021
				c-3.119,0-3.899-1.561-3.119-4.939l89.668-256.266c0.78-2.859,1.559-4.938,2.86-8.577c1.038-5.717,1.558-11.957,1.558-17.933
				c-0.26-1.3,0.78-2.859,2.338-3.119h0.781h71.474c2.338,0,3.377,0.781,3.638,2.339l101.103,283.297
				c0.78,3.117,0,4.418-2.858,4.418h-57.957c-1.821,0.26-3.9-1.039-4.419-3.119l-22.872-66.014L447.534,317.685L447.534,317.685z
				 M360.727,262.326h70.434c-1.561-5.719-3.9-12.736-6.498-20.014c-2.6-7.537-4.938-15.594-7.538-23.911
				c-2.858-8.577-5.197-16.894-8.057-25.469c-2.858-8.579-5.197-16.635-7.538-24.692c-2.338-7.796-4.157-15.074-6.234-21.572h-0.521
				c-2.598,11.956-5.459,23.91-9.356,35.867c-4.158,13.255-8.316,27.29-12.735,41.063
				C369.044,237.635,364.885,250.631,360.727,262.326z"/>
			<path fill="#9999FF" d="M567.091,382.662V217.623c0-4.938,0-10.917-0.262-16.894c-0.259-6.498-0.259-12.215-0.519-17.673
				c-0.26-5.459-0.52-10.917-0.779-14.035c-0.261-0.781-0.261-1.819,0.52-2.86c0.778-0.518,1.561-0.779,2.858-0.779h44.706
				c1.559,0,3.118,0.261,4.417,0.779c1.039,0.521,1.819,1.561,2.34,3.12c0.52,1.56,1.301,3.899,1.819,6.237
				c0.779,3.12,1.301,6.239,1.561,9.098c8.577-7.538,18.712-13.256,29.367-17.154c10.916-3.64,22.093-5.459,33.527-5.459
				c8.837,0,17.672,1.301,25.991,4.157c19.753,6.499,35.347,21.572,42.104,41.066c4.42,11.435,6.239,26.25,6.239,44.442v131.253
				c0,2.857-1.04,3.9-3.64,3.9l-52.241,0.518c-2.339,0.262-4.157-1.039-4.417-3.377v-1.039V258.427
				c-0.262-8.316-1.82-16.634-5.2-24.17c-2.6-5.457-6.498-10.656-11.435-13.776c-5.718-3.638-12.216-5.199-18.973-4.938
				c-7.279,0-14.556,1.04-21.054,3.899c-6.237,2.6-11.695,6.238-16.633,10.655v153.343c0,2.859-1.04,3.9-3.639,3.9H570.99
				c-1.822,0.26-3.641-1.039-3.898-3.119C566.829,383.183,566.829,382.924,567.091,382.662L567.091,382.662z"/>
		</g>
	</g>
</g>
</svg>
