<?xml version="1.0" encoding="utf-8"?>
<!-- Generator: Adobe Illustrator 16.0.0, SVG Export Plug-In . SVG Version: 6.00 Build 0)  -->
<!DOCTYPE svg PUBLIC "-//W3C//DTD SVG 1.1//EN" "http://www.w3.org/Graphics/SVG/1.1/DTD/svg11.dtd">
<svg version="1.1" id="Layer_1" xmlns="http://www.w3.org/2000/svg" xmlns:xlink="http://www.w3.org/1999/xlink" x="0px" y="0px"
	 width="2500px" height="1992px" viewBox="0 0 2500 1992" enable-background="new 0 0 2500 1992" xml:space="preserve">
<rect x="705.307" y="397.177" fill="#FFFFFF" width="1138.71" height="1209.677"/>
<path fill="#7952B3" d="M519.258,0.238c-142.646,0-248.198,124.854-243.472,260.254c4.536,130.083-1.357,298.56-43.77,435.952
	C189.453,834.222,117.52,921.532,0,932.738v126.523c117.52,11.23,189.453,98.496,232.012,236.294
	c42.417,137.394,48.306,305.869,43.77,435.952c-4.727,135.381,100.825,260.254,243.496,260.254h1461.654
	c142.646,0,248.18-124.854,243.453-260.254c-4.536-130.083,1.357-298.559,43.77-435.952
	c42.563-137.798,114.32-225.098,231.846-236.294V932.738c-117.52-11.23-189.277-98.496-231.846-236.294
	c-42.418-137.373-48.307-305.869-43.77-435.952c4.727-135.381-100.806-260.254-243.453-260.254H519.239H519.258z M1694.916,1226.151
	c0,186.44-139.066,299.513-369.854,299.513H932.201c-23.401,0-42.373-18.972-42.373-42.374l0,0V508.715
	c0-23.401,18.972-42.373,42.373-42.373h390.625c192.438,0,318.73,104.238,318.73,264.277c0,112.329-84.961,212.891-193.198,230.508
	v5.859C1595.702,983.148,1694.916,1085.199,1694.916,1226.151L1694.916,1226.151z M1282.226,600.663h-224.004v316.406h188.667
	c145.85,0,226.27-58.73,226.27-163.706C1473.144,654.984,1404.003,600.663,1282.226,600.663L1282.226,600.663z M1058.222,1042.611
	v348.688h232.246c151.855,0,232.29-60.934,232.29-175.445s-82.69-173.262-242.056-173.262h-222.48V1042.611z"/>
</svg>
