<?xml version="1.0" encoding="utf-8"?>
<!-- Generator: Adobe Illustrator 16.0.0, SVG Export Plug-In . SVG Version: 6.00 Build 0)  -->
<!DOCTYPE svg PUBLIC "-//W3C//DTD SVG 1.1//EN" "http://www.w3.org/Graphics/SVG/1.1/DTD/svg11.dtd">
<svg version="1.1" id="Layer_1" xmlns="http://www.w3.org/2000/svg" xmlns:xlink="http://www.w3.org/1999/xlink" x="0px" y="0px"
	 width="600px" height="600px" viewBox="0 0 600 600" enable-background="new 0 0 600 600" xml:space="preserve">
<g id="Capa_x0020_1">
	<g id="_1855587373456">
		<path fill="none" d="M300.517,48.982c138.625,0,251.018,112.39,251.018,251.017c0,138.626-112.392,251.019-251.018,251.019
			S49.5,438.627,49.5,299.998C49.501,161.371,161.892,48.982,300.517,48.982z"/>
		<path id="_x31_" fill="#22A900" d="M300.517,48.982c138.625,0,251.018,112.39,251.018,251.017
			c0,138.626-112.392,251.019-251.018,251.019S49.5,438.627,49.5,299.998C49.501,161.371,161.892,48.982,300.517,48.982z"/>
		<g>
			<g>
				<g>
					<defs>
						<path id="SVGID_1_" d="M300.517,48.982c138.625,0,251.018,112.39,251.018,251.017c0,138.626-112.392,251.019-251.018,251.019
							S49.5,438.627,49.5,299.998C49.501,161.371,161.892,48.982,300.517,48.982z"/>
					</defs>
					<clipPath id="SVGID_2_">
						<use xlink:href="#SVGID_1_"  overflow="visible"/>
					</clipPath>
					<g clip-path="url(#SVGID_2_)">
						<g>
							<path id="_x32_" fill="#A5A5A5" d="M435.922,281.212l1.273,3.335l0.781,1.502l7.892,0.054l0.946-0.444l1.167-2.279
								c4.892-10.896,17.73-57.141,20.343-68.98c7.284-32.071,12.672-64.7,10.062-97.439c-1.001-12.395-3.724-26.179-9.06-37.74
								c-4.115-8.894-10.284-19.066-21.122-23.012c-11.729-4.279-23.126,6.113-28.184,14.563
								c-26.958,44.745-9.726,121.841,2.835,167.586l4.279,15.674C429.916,263.148,433.085,271.206,435.922,281.212L435.922,281.212
								z M417.189,300.723l6.946,31.071h33.353l6.446-31.573L417.189,300.723z M508.18,65.766
								c23.732,9.506,42.022,30.239,45.969,52.695l0.889,9.504l-0.111,7.671l-1.28,8.505l-0.667,4.001
								c-9.337,44.414-52.138,102.61-89.823,133.457C515.24,221.738,593.834,126.967,508.18,65.766L508.18,65.766z M377.166,65.766
								c-23.789,9.506-42.02,30.239-45.967,52.695l-0.89,9.504l0.112,7.671l1.22,8.505l0.67,4.001
								c9.392,44.413,52.191,102.609,89.823,133.457C370.054,221.738,291.513,126.967,377.166,65.766L377.166,65.766z
								 M452.761,283.491l4.67-3.335c55.917-45.246,132.568-197.378,11.729-225.394c-4.895-1.166-3.893-0.888-8.671-1.109
								C555.424,88.947,491.392,226.406,452.761,283.491L452.761,283.491z M432.585,283.491l-4.724-3.335
								c-55.863-45.246-132.515-197.378-11.73-225.394c4.948-1.166,3.947-0.888,8.67-1.109
								C329.921,88.947,393.954,226.406,432.585,283.491L432.585,283.491z"/>
						</g>
					</g>
				</g>
			</g>
		</g>
		<path fill="none" d="M300.517,48.982c138.625,0,251.018,112.39,251.018,251.017c0,138.626-112.392,251.019-251.018,251.019
			S49.5,438.627,49.5,299.998l186.318,189.708l159.58,30.905L362.27,362.476L124.151,121.462c0.666-0.721,1.389-1.387,2.112-2.112
			c0.944-0.889,1.834-1.724,2.778-2.612c0.556-0.5,1.057-1.001,1.613-1.502c0.943-0.833,1.834-1.668,2.778-2.501
			c0.557-0.5,1.112-1,1.668-1.502c0.945-0.832,1.89-1.665,2.833-2.445c0.612-0.5,1.168-0.999,1.78-1.501
			c0.779-0.667,1.556-1.333,2.389-1.944c0.78-0.613,1.502-1.223,2.281-1.836c0.889-0.723,1.723-1.39,2.612-2.11
			c0.723-0.503,1.444-1.058,2.167-1.613c0.833-0.667,1.667-1.279,2.556-1.89c0.722-0.554,1.501-1.111,2.279-1.666
			c0.779-0.556,1.556-1.111,2.334-1.67c0.891-0.61,1.78-1.221,2.614-1.834c0.778-0.554,1.555-1.055,2.334-1.555
			c0.889-0.613,1.835-1.222,2.778-1.834c0.667-0.444,1.392-0.891,2.112-1.334c1.002-0.667,2.002-1.278,3.001-1.946
			c0.723-0.39,1.39-0.833,2.058-1.222c1.056-0.667,2.112-1.278,3.17-1.89c0.666-0.388,1.333-0.779,2-1.113
			c1.11-0.666,2.224-1.275,3.335-1.89c0.667-0.389,1.277-0.72,1.943-1.055c1.169-0.612,2.337-1.224,3.504-1.835
			c0.609-0.332,1.167-0.611,1.779-0.946c1.223-0.61,2.446-1.221,3.668-1.832c0.61-0.28,1.167-0.557,1.78-0.835
			c1.277-0.61,2.556-1.221,3.836-1.778c0.555-0.278,1.054-0.5,1.61-0.777c1.334-0.556,2.669-1.168,3.946-1.725
			c0.557-0.222,1.113-0.444,1.611-0.667c1.392-0.558,2.779-1.168,4.115-1.667c0.5-0.224,0.998-0.444,1.501-0.611
			c1.443-0.559,2.889-1.112,4.335-1.669c0.445-0.166,0.888-0.333,1.332-0.5c1.501-0.557,3.003-1.056,4.559-1.557
			c0.39-0.165,0.778-0.276,1.222-0.443c1.556-0.502,3.114-1.001,4.669-1.501c0.39-0.111,0.723-0.277,1.111-0.388
			c1.613-0.502,3.225-0.946,4.891-1.448c0.333-0.054,0.668-0.167,1.001-0.278c1.667-0.443,3.334-0.945,5.001-1.334l0.946-0.277
			c1.721-0.444,3.446-0.833,5.168-1.221l0.835-0.225c1.777-0.39,3.556-0.778,5.335-1.167l0.721-0.167
			c1.834-0.333,3.669-0.725,5.503-1.058l0.61-0.111c1.891-0.333,3.782-0.611,5.671-0.888l0.501-0.113
			c1.946-0.277,3.836-0.556,5.781-0.778l0.444-0.111c1.946-0.224,3.947-0.445,5.892-0.667h0.389c2.058-0.223,4.058-0.389,6.06-0.555
			h0.277c2.056-0.167,4.113-0.334,6.227-0.444h0.113c2.112-0.113,4.224-0.17,6.337-0.224h0.054h0.055
			C296.238,49.036,298.35,48.982,300.517,48.982z M71.623,196.891v-0.054l0.168-0.279c0.778-1.722,1.555-3.389,2.334-5.058
			l0.333-0.609c0.723-1.613,1.502-3.114,2.278-4.671l0.501-0.944c0.722-1.391,1.444-2.834,2.222-4.225l0.781-1.446
			c0.665-1.167,1.332-2.39,2-3.556c0.388-0.669,0.777-1.336,1.166-2.001c0.556-1.001,1.113-1.946,1.725-2.892
			c0.499-0.889,1.057-1.779,1.611-2.667c0.443-0.722,0.888-1.447,1.333-2.223c0.725-1.112,1.445-2.224,2.167-3.336
			c0.28-0.389,0.558-0.833,0.836-1.278c0.888-1.334,1.779-2.668,2.724-4.001l0.388-0.613l206.327,205.439l-0.723,30.903
			l-30.905,0.723L71.623,196.891z"/>
		
			<radialGradient id="_x31__2_" cx="-141.2405" cy="575.5447" r="0.9805" gradientTransform="matrix(256.0252 0 0 -256.0252 36461.6133 147654.0156)" gradientUnits="userSpaceOnUse">
			<stop  offset="0" style="stop-color:#FFFFFF"/>
			<stop  offset="1" style="stop-color:#D8D8D8"/>
		</radialGradient>
		<path id="_x31__1_" fill="url(#_x31__2_)" d="M300.517,48.982c138.625,0,251.018,112.39,251.018,251.017
			c0,138.626-112.392,251.019-251.018,251.019S49.5,438.627,49.5,299.998l186.318,189.708l159.58,30.905L362.27,362.476
			L124.151,121.462c0.666-0.721,1.389-1.387,2.112-2.112c0.944-0.889,1.834-1.724,2.778-2.612c0.556-0.5,1.057-1.001,1.613-1.502
			c0.943-0.833,1.834-1.668,2.778-2.501c0.557-0.5,1.112-1,1.668-1.502c0.945-0.832,1.89-1.665,2.833-2.445
			c0.612-0.5,1.168-0.999,1.78-1.501c0.779-0.667,1.556-1.333,2.389-1.944c0.78-0.613,1.502-1.223,2.281-1.836
			c0.889-0.723,1.723-1.39,2.612-2.11c0.723-0.503,1.444-1.058,2.167-1.613c0.833-0.667,1.667-1.279,2.556-1.89
			c0.722-0.554,1.501-1.111,2.279-1.666c0.779-0.556,1.556-1.111,2.334-1.67c0.891-0.61,1.78-1.221,2.614-1.834
			c0.778-0.554,1.555-1.055,2.334-1.555c0.889-0.613,1.835-1.222,2.778-1.834c0.667-0.444,1.392-0.891,2.112-1.334
			c1.002-0.667,2.002-1.278,3.001-1.946c0.723-0.39,1.39-0.833,2.058-1.222c1.056-0.667,2.112-1.278,3.17-1.89
			c0.666-0.388,1.333-0.779,2-1.113c1.11-0.666,2.224-1.275,3.335-1.89c0.667-0.389,1.277-0.72,1.943-1.055
			c1.169-0.612,2.337-1.224,3.504-1.835c0.609-0.332,1.167-0.611,1.779-0.946c1.223-0.61,2.446-1.221,3.668-1.832
			c0.61-0.28,1.167-0.557,1.78-0.835c1.277-0.61,2.556-1.221,3.836-1.778c0.555-0.278,1.054-0.5,1.61-0.777
			c1.334-0.556,2.669-1.168,3.946-1.725c0.557-0.222,1.113-0.444,1.611-0.667c1.392-0.558,2.779-1.168,4.115-1.667
			c0.5-0.224,0.998-0.444,1.501-0.611c1.443-0.559,2.889-1.112,4.335-1.669c0.445-0.166,0.888-0.333,1.332-0.5
			c1.501-0.557,3.003-1.056,4.559-1.557c0.39-0.165,0.778-0.276,1.222-0.443c1.556-0.502,3.114-1.001,4.669-1.501
			c0.39-0.111,0.723-0.277,1.111-0.388c1.613-0.502,3.225-0.946,4.891-1.448c0.333-0.054,0.668-0.167,1.001-0.278
			c1.667-0.443,3.334-0.945,5.001-1.334l0.946-0.277c1.721-0.444,3.446-0.833,5.168-1.221l0.835-0.225
			c1.777-0.39,3.556-0.778,5.335-1.167l0.721-0.167c1.834-0.333,3.669-0.725,5.503-1.058l0.61-0.111
			c1.891-0.333,3.782-0.611,5.671-0.888l0.501-0.113c1.946-0.277,3.836-0.556,5.781-0.778l0.444-0.111
			c1.946-0.224,3.947-0.445,5.892-0.667h0.389c2.058-0.223,4.058-0.389,6.06-0.555h0.277c2.056-0.167,4.113-0.334,6.227-0.444h0.113
			c2.112-0.113,4.224-0.17,6.337-0.224h0.054h0.055C296.238,49.036,298.35,48.982,300.517,48.982z M71.623,196.891v-0.054
			l0.168-0.279c0.778-1.722,1.555-3.389,2.334-5.058l0.333-0.609c0.723-1.613,1.502-3.114,2.278-4.671l0.501-0.944
			c0.722-1.391,1.444-2.834,2.222-4.225l0.781-1.446c0.665-1.167,1.332-2.39,2-3.556c0.388-0.669,0.777-1.336,1.166-2.001
			c0.556-1.001,1.113-1.946,1.725-2.892c0.499-0.889,1.057-1.779,1.611-2.667c0.443-0.722,0.888-1.447,1.333-2.223
			c0.725-1.112,1.445-2.224,2.167-3.336c0.28-0.389,0.558-0.833,0.836-1.278c0.888-1.334,1.779-2.668,2.724-4.001l0.388-0.613
			l206.327,205.439l-0.723,30.903l-30.905,0.723L71.623,196.891z"/>
		<g>
			<g>
				<g>
					<defs>
						<path id="SVGID_3_" d="M300.517,48.982c138.625,0,251.018,112.39,251.018,251.017c0,138.626-112.392,251.019-251.018,251.019
							S49.5,438.627,49.5,299.998l186.318,189.708l159.58,30.905L362.27,362.476L124.151,121.462
							c0.666-0.721,1.389-1.387,2.112-2.112c0.944-0.889,1.834-1.724,2.778-2.612c0.556-0.5,1.057-1.001,1.613-1.502
							c0.943-0.833,1.834-1.668,2.778-2.501c0.557-0.5,1.112-1,1.668-1.502c0.945-0.832,1.89-1.665,2.833-2.445
							c0.612-0.5,1.168-0.999,1.78-1.501c0.779-0.667,1.556-1.333,2.389-1.944c0.78-0.613,1.502-1.223,2.281-1.836
							c0.889-0.723,1.723-1.39,2.612-2.11c0.723-0.503,1.444-1.058,2.167-1.613c0.833-0.667,1.667-1.279,2.556-1.89
							c0.722-0.554,1.501-1.111,2.279-1.666c0.779-0.556,1.556-1.111,2.334-1.67c0.891-0.61,1.78-1.221,2.614-1.834
							c0.778-0.554,1.555-1.055,2.334-1.555c0.889-0.613,1.835-1.222,2.778-1.834c0.667-0.444,1.392-0.891,2.112-1.334
							c1.002-0.667,2.002-1.278,3.001-1.946c0.723-0.39,1.39-0.833,2.058-1.222c1.056-0.667,2.112-1.278,3.17-1.89
							c0.666-0.388,1.333-0.779,2-1.113c1.11-0.666,2.224-1.275,3.335-1.89c0.667-0.389,1.277-0.72,1.943-1.055
							c1.169-0.612,2.337-1.224,3.504-1.835c0.609-0.332,1.167-0.611,1.779-0.946c1.223-0.61,2.446-1.221,3.668-1.832
							c0.61-0.28,1.167-0.557,1.78-0.835c1.277-0.61,2.556-1.221,3.836-1.778c0.555-0.278,1.054-0.5,1.61-0.777
							c1.334-0.556,2.669-1.168,3.946-1.725c0.557-0.222,1.113-0.444,1.611-0.667c1.392-0.558,2.779-1.168,4.115-1.667
							c0.5-0.224,0.998-0.444,1.501-0.611c1.443-0.559,2.889-1.112,4.335-1.669c0.445-0.166,0.888-0.333,1.332-0.5
							c1.501-0.557,3.003-1.056,4.559-1.557c0.39-0.165,0.778-0.276,1.222-0.443c1.556-0.502,3.114-1.001,4.669-1.501
							c0.39-0.111,0.723-0.277,1.111-0.388c1.613-0.502,3.225-0.946,4.891-1.448c0.333-0.054,0.668-0.167,1.001-0.278
							c1.667-0.443,3.334-0.945,5.001-1.334l0.946-0.277c1.721-0.444,3.446-0.833,5.168-1.221l0.835-0.225
							c1.777-0.39,3.556-0.778,5.335-1.167l0.721-0.167c1.834-0.333,3.669-0.725,5.503-1.058l0.61-0.111
							c1.891-0.333,3.782-0.611,5.671-0.888l0.501-0.113c1.946-0.277,3.836-0.556,5.781-0.778l0.444-0.111
							c1.946-0.224,3.947-0.445,5.892-0.667h0.389c2.058-0.223,4.058-0.389,6.06-0.555h0.277c2.056-0.167,4.113-0.334,6.227-0.444
							h0.113c2.112-0.113,4.224-0.17,6.337-0.224h0.054h0.055C296.238,49.036,298.35,48.982,300.517,48.982z M71.623,196.891v-0.054
							l0.168-0.279c0.778-1.722,1.555-3.389,2.334-5.058l0.333-0.609c0.723-1.613,1.502-3.114,2.278-4.671l0.501-0.944
							c0.722-1.391,1.444-2.834,2.222-4.225l0.781-1.446c0.665-1.167,1.332-2.39,2-3.556c0.388-0.669,0.777-1.336,1.166-2.001
							c0.556-1.001,1.113-1.946,1.725-2.892c0.499-0.889,1.057-1.779,1.611-2.667c0.443-0.722,0.888-1.447,1.333-2.223
							c0.725-1.112,1.445-2.224,2.167-3.336c0.28-0.389,0.558-0.833,0.836-1.278c0.888-1.334,1.779-2.668,2.724-4.001l0.388-0.613
							l206.327,205.439l-0.723,30.903l-30.905,0.723L71.623,196.891z"/>
					</defs>
					<clipPath id="SVGID_4_">
						<use xlink:href="#SVGID_3_"  overflow="visible"/>
					</clipPath>
					<g clip-path="url(#SVGID_4_)">
						<g>
							<path id="_x32__1_" fill="#A5A5A5" d="M435.922,281.212l1.273,3.335l0.781,1.502l7.892,0.054l0.946-0.444l1.167-2.279
								c4.892-10.896,17.73-57.141,20.343-68.98c7.284-32.071,12.672-64.7,10.062-97.439c-1.001-12.395-3.724-26.179-9.06-37.74
								c-4.115-8.894-10.284-19.066-21.122-23.012c-11.729-4.279-23.126,6.113-28.184,14.563
								c-26.958,44.745-9.726,121.841,2.835,167.586l4.279,15.674C429.916,263.148,433.085,271.206,435.922,281.212L435.922,281.212
								z M417.189,300.723l6.946,31.071h33.353l6.446-31.573L417.189,300.723z M508.18,65.766
								c23.732,9.506,42.022,30.239,45.969,52.695l0.889,9.504l-0.111,7.671l-1.28,8.505l-0.667,4.001
								c-9.337,44.414-52.138,102.61-89.823,133.457C515.24,221.738,593.834,126.967,508.18,65.766L508.18,65.766z M377.166,65.766
								c-23.789,9.506-42.02,30.239-45.967,52.695l-0.89,9.504l0.112,7.671l1.22,8.505l0.67,4.001
								c9.392,44.413,52.191,102.609,89.823,133.457C370.054,221.738,291.513,126.967,377.166,65.766L377.166,65.766z
								 M452.761,283.491l4.67-3.335c55.917-45.246,132.568-197.378,11.729-225.394c-4.895-1.166-3.893-0.888-8.671-1.109
								C555.424,88.947,491.392,226.406,452.761,283.491L452.761,283.491z M432.585,283.491l-4.724-3.335
								c-55.863-45.246-132.515-197.378-11.73-225.394c4.948-1.166,3.947-0.888,8.67-1.109
								C329.921,88.947,393.954,226.406,432.585,283.491L432.585,283.491z"/>
						</g>
					</g>
				</g>
			</g>
		</g>
	</g>
</g>
</svg>
