<?xml version="1.0" encoding="utf-8"?>
<!-- Generator: Adobe Illustrator 16.0.0, SVG Export Plug-In . SVG Version: 6.00 Build 0)  -->
<!DOCTYPE svg PUBLIC "-//W3C//DTD SVG 1.1//EN" "http://www.w3.org/Graphics/SVG/1.1/DTD/svg11.dtd">
<svg version="1.1" id="Layer_1" xmlns="http://www.w3.org/2000/svg" xmlns:xlink="http://www.w3.org/1999/xlink" x="0px" y="0px"
	 width="600px" height="600px" viewBox="0 0 600 600" enable-background="new 0 0 600 600" xml:space="preserve">
<g>
	<path fill="#264DE4" d="M299.778,560.558l-148.433-41.206l-33.077-371.001h363.464l-33.113,370.942L299.778,560.558
		L299.778,560.558z"/>
	<path fill="#2965F1" d="M420.27,495.674l28.299-316.987H300.001v350.332L420.27,495.674L420.27,495.674z"/>
	<path fill="#EBEBEB" d="M194.098,316.286l4.077,45.501h101.826v-45.501H194.098L194.098,316.286z"/>
	<path fill="#EBEBEB" d="M185.905,224.189l4.136,45.503h109.96v-45.503H185.905L185.905,224.189z"/>
	<path fill="#EBEBEB" d="M300.001,434.458l-0.201,0.054l-50.675-13.682l-3.24-36.292H200.21l6.374,71.445l93.208,25.875L300,481.8
		L300.001,434.458L300.001,434.458z"/>
	<path fill="#FFFFFF" d="M203.807,47.53h55.111v23.046h-32.064v23.046h32.064v23.046h-55.111V47.53L203.807,47.53z"/>
	<path fill="#FFFFFF" d="M269.941,47.53h55.109v20.041h-32.063v4.008h32.063v46.092h-55.109V96.628h32.063v-4.007h-32.063V47.53
		L269.941,47.53z"/>
	<path fill="#FFFFFF" d="M336.073,47.53h55.112v20.041h-32.066v4.008h32.066v46.092h-55.112V96.628h32.065v-4.007h-32.065V47.53
		L336.073,47.53z"/>
	<path fill="#FFFFFF" d="M405.612,316.286l8.214-92.097H299.843v45.503h64.118l-4.142,46.594h-59.977v45.501h56.032l-5.281,59.013
		l-50.75,13.698v47.339l93.283-25.854l0.682-7.688l10.693-119.791L405.612,316.286L405.612,316.286z"/>
</g>
</svg>
