<?xml version="1.0" encoding="utf-8"?>
<!-- Generator: Adobe Illustrator 16.0.0, SVG Export Plug-In . SVG Version: 6.00 Build 0)  -->
<!DOCTYPE svg PUBLIC "-//W3C//DTD SVG 1.1//EN" "http://www.w3.org/Graphics/SVG/1.1/DTD/svg11.dtd">
<svg version="1.1" id="Layer_1" xmlns="http://www.w3.org/2000/svg" xmlns:xlink="http://www.w3.org/1999/xlink" x="0px" y="0px"
	 width="600px" height="600px" viewBox="0 0 600 600" enable-background="new 0 0 600 600" xml:space="preserve">
<g>
	<path fill="#0ACF83" d="M236.001,549c44.527,0,80.667-36.139,80.667-80.665v-80.669h-80.667c-44.528,0-80.666,36.14-80.666,80.669
		C155.335,512.861,191.473,549,236.001,549z"/>
	<path fill="#A259FF" d="M155.334,307c0-44.527,36.138-80.667,80.666-80.667h80.667v161.333h-80.667
		C191.473,387.666,155.334,351.527,155.334,307z"/>
	<path fill="#F24E1E" d="M155.334,145.666c0-44.528,36.139-80.667,80.667-80.667h80.667v161.333h-80.667
		C191.473,226.332,155.334,190.194,155.334,145.666z"/>
	<path fill="#FF7262" d="M316.667,65h80.666c44.528,0,80.668,36.139,80.668,80.667c0,44.528-36.14,80.666-80.668,80.666h-80.666V65z
		"/>
	<path fill="#1ABCFE" d="M478.001,307c0,44.527-36.14,80.666-80.668,80.666c-44.527,0-80.666-36.139-80.666-80.666
		s36.139-80.667,80.666-80.667C441.862,226.332,478.001,262.471,478.001,307z"/>
</g>
</svg>
