<?xml version="1.0" encoding="utf-8"?>
<!-- Generator: Adobe Illustrator 16.0.0, SVG Export Plug-In . SVG Version: 6.00 Build 0)  -->
<!DOCTYPE svg PUBLIC "-//W3C//DTD SVG 1.1//EN" "http://www.w3.org/Graphics/SVG/1.1/DTD/svg11.dtd">
<svg version="1.1" id="Layer_1" xmlns="http://www.w3.org/2000/svg" xmlns:xlink="http://www.w3.org/1999/xlink" x="0px" y="0px"
	 width="600px" height="600px" viewBox="0 0 600 600" enable-background="new 0 0 600 600" xml:space="preserve">
<g>
	<path fill="#E44D26" d="M481.149,149.851l-33.008,369.753l-148.362,41.134l-147.956-41.074l-32.971-369.813H481.149
		L481.149,149.851z"/>
	<path fill="#F16529" d="M300,529.298l119.885-33.238l28.205-315.971H300V529.298L300,529.298z"/>
	<path fill="#EBEBEB" d="M235.838,270.802H300v-45.357H186.269l1.086,12.167l11.146,124.989H300v-45.355h-60.018L235.838,270.802
		L235.838,270.802z"/>
	<path fill="#EBEBEB" d="M246.058,385.28h-45.529l6.354,71.215l92.908,25.793L300,482.23v-47.19l-0.2,0.055l-50.512-13.64
		L246.058,385.28L246.058,385.28z"/>
	<path fill="#FFFFFF" d="M152.56,49.352h23.049v22.772h21.084V49.352h23.05v68.961h-23.049V95.222H175.61v23.091h-23.049
		L152.56,49.352L152.56,49.352L152.56,49.352z"/>
	<path fill="#FFFFFF" d="M250.054,72.22h-20.292V49.352h63.644V72.22h-20.3v46.093h-23.051L250.054,72.22L250.054,72.22
		L250.054,72.22z"/>
	<path fill="#FFFFFF" d="M303.506,49.352h24.035l14.782,24.232l14.771-24.232h24.043v68.961h-22.957V84.132l-15.858,24.52h-0.396
		l-15.867-24.52v34.181h-22.554V49.352L303.506,49.352z"/>
	<path fill="#FFFFFF" d="M392.608,49.352h23.058v46.167h32.414v22.795h-55.472V49.352L392.608,49.352z"/>
	<path fill="#FFFFFF" d="M299.844,362.601h55.85l-5.264,58.824l-50.586,13.652v47.188l92.981-25.771l0.683-7.663l10.659-119.407
		l1.105-12.179H299.844V362.601L299.844,362.601z"/>
	<path fill="#FFFFFF" d="M299.844,270.691v0.111H409.4l0.91-10.195l2.066-22.994l1.085-12.167H299.844V270.691L299.844,270.691z"/>
</g>
</svg>
