<?xml version="1.0" encoding="utf-8"?>
<!-- Generator: Adobe Illustrator 16.0.0, SVG Export Plug-In . SVG Version: 6.00 Build 0)  -->
<!DOCTYPE svg PUBLIC "-//W3C//DTD SVG 1.1//EN" "http://www.w3.org/Graphics/SVG/1.1/DTD/svg11.dtd">
<svg version="1.1" id="Layer_1" xmlns="http://www.w3.org/2000/svg" xmlns:xlink="http://www.w3.org/1999/xlink" x="0px" y="0px"
	 width="500px" height="500px" viewBox="0 0 500 500" enable-background="new 0 0 500 500" xml:space="preserve">
<g>
	<g>
		<g>
			<g>
				<path fill="#0D6EFD" d="M259.838,279.039c-5.408,2.23-14.262,2.23-19.672,0.002c-5.411-2.23-22.798-17.729-29.988-25.313
					l-71.208-75.113c-7.189-7.583-7.667-18.913-1.06-25.176s17.895-5.183,25.084,2.401c2.105,2.221,4.211,4.443,6.321,6.66
					c5.14,5.399,55.66,59.795,62.929,67.967c3.616,4.064,12.828,13.306,18.755,13.306c5.75,0,13.388-9.515,17.239-14.159
					c6.448-7.776,53.98-58.178,59.963-64.489c2.875-3.032,5.751-6.063,8.624-9.096c0.06-0.063,0.12-0.126,0.18-0.19
					c7.189-7.583,18.479-8.664,25.084-2.401c6.606,6.263,6.129,17.593-1.061,25.176l-71.211,75.115
					C282.63,261.313,265.248,276.807,259.838,279.039z"/>
			</g>
		</g>
	</g>
</g>
</svg>
