<?xml version="1.0" encoding="utf-8"?>
<!-- Generator: Adobe Illustrator 16.0.0, SVG Export Plug-In . SVG Version: 6.00 Build 0)  -->
<!DOCTYPE svg PUBLIC "-//W3C//DTD SVG 1.1//EN" "http://www.w3.org/Graphics/SVG/1.1/DTD/svg11.dtd">
<svg version="1.1" id="Layer_1" xmlns="http://www.w3.org/2000/svg" xmlns:xlink="http://www.w3.org/1999/xlink" x="0px" y="0px"
	 width="500px" height="500px" viewBox="0 0 500 500" enable-background="new 0 0 500 500" xml:space="preserve">
<g>
	<g>
		<g>
			<g>
				<path fill="#FFFFFF" d="M314,205.201c2.23,5.408,2.23,14.262,0.002,19.672c-2.23,5.411-17.729,22.798-25.313,29.988
					l-75.113,71.208c-7.583,7.188-18.913,7.667-25.176,1.06c-6.263-6.606-5.183-17.895,2.401-25.084
					c2.221-2.105,4.443-4.211,6.66-6.321c5.399-5.14,59.795-55.66,67.967-62.929c4.064-3.616,13.306-12.828,13.306-18.755
					c0-5.75-9.515-13.388-14.159-17.239c-7.775-6.448-58.178-53.98-64.488-59.963c-3.032-2.875-6.063-5.751-9.096-8.624
					c-0.063-0.06-0.126-0.12-0.19-0.18c-7.583-7.189-8.664-18.479-2.401-25.084c6.263-6.606,17.593-6.129,25.176,1.061
					l75.115,71.211C296.273,182.409,311.768,199.791,314,205.201z"/>
			</g>
		</g>
	</g>
</g>
</svg>
