<?xml version="1.0" encoding="utf-8"?>
<!-- Generator: Adobe Illustrator 16.0.0, SVG Export Plug-In . SVG Version: 6.00 Build 0)  -->
<!DOCTYPE svg PUBLIC "-//W3C//DTD SVG 1.1//EN" "http://www.w3.org/Graphics/SVG/1.1/DTD/svg11.dtd">
<svg version="1.1" id="Layer_1" xmlns="http://www.w3.org/2000/svg" xmlns:xlink="http://www.w3.org/1999/xlink" x="0px" y="0px"
	 width="24px" height="24px" viewBox="0 0 24 24" enable-background="new 0 0 24 24" xml:space="preserve">
<path fill="#0D6EFD" d="M0,0v24h24V0H0z M18.987,17.19c0,1.005-0.835,1.839-1.838,1.777C9.571,18.497,3.504,12.438,3.033,4.852
	C2.971,3.848,3.806,3.012,4.81,3.012h1.537c0.906,0,1.661,0.675,1.768,1.572l0.258,2.239C8.434,7.366,8.248,7.898,7.866,8.28
	L6.222,9.924c1.279,2.522,3.34,4.575,5.854,5.854l1.634-1.635c0.383-0.382,0.915-0.568,1.458-0.507l2.257,0.258
	c0.896,0.107,1.572,0.861,1.563,1.758V17.19z"/>
</svg>
