<?xml version="1.0" encoding="utf-8"?>
<!-- Generator: Adobe Illustrator 16.0.0, SVG Export Plug-In . SVG Version: 6.00 Build 0)  -->
<!DOCTYPE svg PUBLIC "-//W3C//DTD SVG 1.1//EN" "http://www.w3.org/Graphics/SVG/1.1/DTD/svg11.dtd">
<svg version="1.1" xmlns="http://www.w3.org/2000/svg" xmlns:xlink="http://www.w3.org/1999/xlink" x="0px" y="0px" width="150px"
	 height="150px" viewBox="0 0 150 150" enable-background="new 0 0 150 150" xml:space="preserve">
<g id="Layer_2">
</g>
<g id="Layer_1">
	<g>
		<g>
			<path fill="#0D6EFD" d="M34.375,53.002c13.699,0,52.859,0,66.561,0c5.027,0,5.027-7.807,0-7.807c-13.702,0-52.862,0-66.561,0
				C29.35,45.194,29.35,53.002,34.375,53.002L34.375,53.002z"/>
		</g>
	</g>
	<g>
		<g>
			<path fill="#0D6EFD" d="M34.376,101.188c13.699,0,42.173,0,55.875,0c5.027,0,5.027-7.807,0-7.807c-13.701,0-42.176,0-55.875,0
				C29.35,93.382,29.35,101.188,34.376,101.188L34.376,101.188z"/>
		</g>
	</g>
	<g>
		<g>
			<path fill="#0D6EFD" d="M34.375,77.097c13.699,0,67.547,0,81.249,0c5.025,0,5.025-7.808,0-7.808c-13.703,0-67.552,0-81.249,0
				C29.35,69.289,29.35,77.097,34.375,77.097L34.375,77.097z"/>
		</g>
	</g>
</g>
</svg>
